# xmcd CD database file
#
# Track frame offsets:
#	150
#	27151
#	58338
#	93877
#	113038
#	181035
#
# Disc length: 2518 seconds
#
# Revision: 0
# Processed by: cddbd v1.5.2PL0 Copyright (c) Steve Scherf et al.
# Submitted via: CDex 1.70beta3
#
DISCID=4209d406
DTITLE=Chico Hamilton - A Different Journey
DYEAR=1963
DGENRE=Jazz
TTITLE0=Sun Yen Yen
TTITLE1=A Voice in the Night
TTITLE2=A Different Journey
TTITLE3=The Vulture
TTITLE4=One Sheridan Square
TTITLE5=Island Blues
EXTD=YEAR: 1963
EXTT0=
EXTT1=
EXTT2=
EXTT3=
EXTT4=
EXTT5=
PLAYORDER=
